<svg width="103" height="65" fill="none" xmlns="http://www.w3.org/2000/svg"><path d="M8.478 56.404h-3.15V54.91c0-.264-.15-.396-.45-.396H4.23c-.3 0-.45.132-.45.396v6.624c0 .264.15.396.45.396h.648c.3 0 .45-.132.45-.396v-1.926h-.9V57.61h4.05v4.158c0 1.488-.882 2.232-2.646 2.232H3.276C1.512 64 .63 63.256.63 61.768v-7.092c0-1.488.882-2.232 2.646-2.232h2.556c1.764 0 2.646.744 2.646 2.232v1.728zm3.852-3.96h2.664c1.764 0 2.646.744 2.646 2.232v7.092c0 1.488-.882 2.232-2.646 2.232H12.33c-1.764 0-2.646-.744-2.646-2.232v-7.092c0-1.488.882-2.232 2.646-2.232zm2.16 8.91V55.09c0-.264-.15-.396-.45-.396h-.756c-.3 0-.45.132-.45.396v6.264c0 .264.15.396.45.396h.756c.3 0 .45-.132.45-.396zm7.679.396h3.582V64h-6.732V52.444h3.15v9.306zm4.483-9.306h5.31c1.764 0 2.646.744 2.646 2.232v7.092c0 1.488-.882 2.232-2.646 2.232h-5.31V52.444zm4.806 9.09V54.91c0-.264-.15-.396-.45-.396h-1.206v7.416h1.206c.3 0 .45-.132.45-.396z" fill="#B0820A"/><path d="M47.343 56.764h-3.15V54.91c0-.264-.15-.396-.45-.396h-.63c-.3 0-.45.132-.45.396v6.624c0 .264.15.396.45.396h.63c.3 0 .45-.132.45-.396v-1.782h3.15v2.016c0 1.488-.882 2.232-2.646 2.232h-2.538c-1.764 0-2.646-.744-2.646-2.232v-7.092c0-1.488.882-2.232 2.646-2.232h2.538c1.764 0 2.646.744 2.646 2.232v2.088zm5.978-4.32h3.15v9.324c0 1.488-.882 2.232-2.646 2.232H51.16c-1.764 0-2.646-.744-2.646-2.232v-9.324h3.15v8.91c0 .264.15.396.45.396h.756c.3 0 .45-.132.45-.396v-8.91zm11.564 0v2.25h-2.232V64h-3.15v-9.306H57.29v-2.25h7.596zm3.954 9.306h3.582V64h-6.732V52.444h3.15v9.306zm7.453 0h3.942V64h-7.092V52.444h6.93v2.25h-3.78v2.358h3.258v2.25h-3.258v2.448zm8.086-1.854V64h-3.15V52.444h5.346c1.764 0 2.646.744 2.646 2.232v2.988c0 1.14-.516 1.842-1.548 2.106L89.796 64h-3.384l-1.836-4.104h-.198zm1.242-5.202h-1.242v3.06h1.242c.3 0 .45-.132.45-.396V55.09c0-.264-.15-.396-.45-.396zM96.09 64h-3.15v-3.744l-3.186-7.812h3.222l1.512 4.878 1.404-4.878h3.204L96.09 60.22V64zM36 0h30v45.306H36z" fill="#2B2B2B"/><path d="M54.917 5.709c-.04-.769-.238-1.117-.596-1.117-.395 0-.592.348-.633 1.117l-.473 6.14c0 .347-.239.594-.555.594-.276 0-.515-.244-.515-.595l-.555-6.14c-.078-.801-.235-1.116-.592-1.116-.358 0-.555.315-.593 1.117l-.555 6.14c-.078.347-.316.594-.555.594-.238 0-.473-.244-.555-.595l-.436-6.14c-.078-.768-.235-1.116-.63-1.116s-.555.348-.633 1.117c-.197 3.035-.633 6.07-.633 10.955 0 1.116.395 2.023 1.147 2.548l1.427 1.012c.358.243.593.664.555 1.36l-.575 17.299c-.018 1.006.902 1.831 2.04 1.831 1.14 0 2.06-.831 2.039-1.837l-.616-17.293c-.041-.7.197-1.153.555-1.396l1.423-.976c.753-.522 1.188-1.465 1.188-2.548-.003-4.885-.439-7.92-.674-10.955z" fill="url(#paint0_radial)"/><defs><radialGradient id="paint0_radial" cx="0" cy="0" r="1" gradientUnits="userSpaceOnUse" gradientTransform="matrix(14.8451 0 0 13.0884 50.998 22.654)"><stop stop-color="#A8A8A8"/><stop offset=".168" stop-color="#BFBFBF"/><stop offset=".4" stop-color="#D9D9D9"/><stop offset=".61" stop-color="#E9E9E9"/><stop offset=".775" stop-color="#EEE"/></radialGradient></defs></svg>